# xmcd
#
# Track frame offsets: 
#        150
#        16690
#        25158
#        43468
#        55210
#        67062
#        78708
#        95609
#        102068
#        121588
#        140725
#        151843
#        164516
#        180180
#        193894
#        215277
#        232539
#        241020
#        252759
#        269677
#        276091
#        287181
#        302808
#        327628
#
# Disc length: 4418 seconds
#
# Revision: 0
# Processed by: cddbd v1.5.2PL0 Copyright (c) Steve Scherf et al.
# Submitted via: ExactAudioCopy v0.99pb5
#
DISCID=53114018
DTITLE=Detlev Jöcker - Kleine Kerze leuchte - Jubiläumsausgabe
DYEAR=2007
DGENRE=Kinderlieder
TTITLE0=Meine kleine Kerze
TTITLE1=Schneeflöckchen, Weißröckchen
TTITLE2=Oh weh, noch immer liegt kein Schnee
TTITLE3=Bald ist Nikolausabend da
TTITLE4=Guter alter Nikolaus
TTITLE5=Wenn wir heute Plätzchen backen
TTITLE6=Mein Weihnachtsstern, der leuchtet weit
TTITLE7=Kleine Kerze leuchte
TTITLE8=Leo Spekulatius, der Lebkuchenmann
TTITLE9=Wie viel mal noch schlafen?
TTITLE10=Es singt in mir und klingt in mir
TTITLE11=Wunschzettellied
TTITLE12=Wi-Wa-Weihnachtsmann
TTITLE13=Ihr Kinderlein kommet
TTITLE14=Was ist nur geschehen?
TTITLE15=Meine kleine Kerze - Playback
TTITLE16=Schneeflöckchen, Weißröckchen - Playback
TTITLE17=Bald ist Nikolausabend da - Playback
TTITLE18=Mein Weihnachtsstern, der leuchtet weit - Playback
TTITLE19=Kleine Kerze leuchte - Playback
TTITLE20=Es singt in mir und klingt in mir - Playback
TTITLE21=Wi-Wa-Weihnachtsmann - Playback
TTITLE22=Ihr Kinderlein kommet - Playback
TTITLE23=data
EXTD=
EXTT0=
EXTT1=
EXTT2=
EXTT3=
EXTT4=
EXTT5=
EXTT6=
EXTT7=
EXTT8=
EXTT9=
EXTT10=
EXTT11=
EXTT12=
EXTT13=
EXTT14=
EXTT15=
EXTT16=
EXTT17=
EXTT18=
EXTT19=
EXTT20=
EXTT21=
EXTT22=
EXTT23=
PLAYORDER=
